<?xml version="1.0" standalone="no"?>
<!DOCTYPE svg PUBLIC "-//W3C//DTD SVG 20010904//EN"
 "http://www.w3.org/TR/2001/REC-SVG-20010904/DTD/svg10.dtd">
<svg version="1.0" xmlns="http://www.w3.org/2000/svg"
 width="512.000000pt" height="512.000000pt" viewBox="0 0 512.000000 512.000000"
 preserveAspectRatio="xMidYMid meet">

<g transform="translate(0.000000,512.000000) scale(0.100000,-0.100000)"
fill="#000000" stroke="none">
<path d="M2425 5025 l-25 -24 0 -359 0 -359 -108 -11 c-342 -38 -677 -184
-941 -414 -285 -247 -478 -579 -563 -969 -19 -91 -22 -133 -22 -329 0 -252 12
-336 80 -540 210 -637 782 -1100 1446 -1172 l108 -11 0 -351 c1 -260 4 -355
13 -367 34 -44 89 -47 127 -7 20 21 20 33 20 676 l0 653 31 -23 c390 -295 825
-391 1269 -282 268 66 487 191 685 389 201 200 322 412 391 682 30 118 30 135
1 169 -39 45 -72 38 -158 -36 -140 -120 -263 -187 -430 -232 -118 -32 -356
-32 -472 0 -180 49 -332 136 -457 262 -340 339 -384 873 -105 1265 43 60 150
167 238 238 36 29 47 45 47 67 0 75 -38 95 -164 86 -324 -24 -575 -121 -845
-324 l-31 -23 0 661 0 661 -25 24 c-15 16 -36 25 -55 25 -19 0 -40 -9 -55 -25z
m-25 -2466 l0 -1561 -67 7 c-369 37 -689 190 -954 454 -222 222 -353 459 -425
766 -27 112 -28 134 -28 335 0 201 1 223 28 335 72 307 204 544 425 766 224
223 464 357 762 423 117 25 156 32 222 34 l37 2 0 -1561z m805 1196 c-301
-394 -310 -936 -24 -1351 59 -85 209 -233 294 -289 294 -194 662 -247 989
-140 73 24 226 94 254 117 25 21 12 -19 -38 -116 -396 -778 -1411 -964 -2053
-376 l-67 62 0 898 0 898 73 67 c131 121 293 216 462 273 188 62 190 61 110
-43z"/>
<path d="M840 4200 c-13 -13 -20 -33 -20 -57 0 -33 11 -47 116 -154 129 -131
162 -151 203 -128 38 22 56 63 41 98 -6 16 -64 81 -129 145 -107 105 -121 116
-154 116 -24 0 -44 -7 -57 -20z"/>
<path d="M3625 3575 c-21 -20 -25 -34 -25 -80 l0 -55 -55 0 c-67 0 -105 -29
-105 -80 0 -51 38 -80 105 -80 l55 0 0 -55 c0 -67 29 -105 80 -105 51 0 80 38
80 105 l0 55 55 0 c67 0 105 29 105 80 0 51 -38 80 -105 80 l-55 0 0 55 c0 67
-29 105 -80 105 -19 0 -40 -9 -55 -25z"/>
<path d="M4105 2775 c-21 -20 -25 -34 -25 -80 l0 -55 -55 0 c-67 0 -105 -29
-105 -80 0 -51 38 -80 105 -80 l55 0 0 -55 c0 -67 29 -105 80 -105 51 0 80 38
80 105 l0 55 55 0 c67 0 105 29 105 80 0 51 -38 80 -105 80 l-55 0 0 55 c0 67
-29 105 -80 105 -19 0 -40 -9 -55 -25z"/>
<path d="M185 2615 c-16 -15 -25 -36 -25 -55 0 -19 9 -40 25 -55 24 -25 26
-25 203 -25 165 0 180 1 200 20 28 27 37 62 21 92 -24 45 -35 47 -222 48 -176
0 -178 0 -202 -25z"/>
<path d="M1065 1251 c-16 -10 -78 -68 -137 -128 -97 -99 -108 -114 -108 -147
0 -48 28 -76 77 -76 33 0 47 11 150 113 153 150 166 175 114 228 -34 34 -55
36 -96 10z"/>
</g>
</svg>
