<svg height="512pt" viewBox="-2 0 512 512.00048" width="512pt" xmlns="http://www.w3.org/2000/svg"><path d="m188.984375 67.710938-13.378906 32.128906c-2.347657 5.640625 2.96875 11.71875 8.867187 10.152344l33.640625-8.921876 26.425781 22.652344c4.648438 3.984375 12.0625.785156 12.394532-5.292968l1.90625-34.753907 29.710937-18.132812c5.214844-3.183594 4.492188-11.222657-1.203125-13.425781l-32.464844-12.554688-8.0625-33.855469c-1.414062-5.9375-9.28125-7.746093-13.140624-3.003906l-21.96875 26.996094-34.695313-2.796875c-6.078125-.496094-10.234375 6.433594-6.914063 11.570312zm25.457031-22.710938c2.464844.203125 4.871094-.832031 6.433594-2.75l14.851562-18.246094 5.453126 22.886719c.570312 2.40625 2.292968 4.378906 4.597656 5.269531l21.945312 8.484375-20.082031 12.257813c-2.113281 1.289062-3.453125 3.535156-3.589844 6.003906l-1.289062 23.492188-17.863281-15.3125c-1.378907-1.183594-3.121094-1.808594-4.894532-1.808594-.640625 0-1.289062.082031-1.925781.25l-22.742187 6.035156 9.046874-21.722656c.949219-2.285156.714844-4.886719-.628906-6.964844l-12.765625-19.765625zm0 0"/><path d="m351.476562 137.347656 34.625 3.523438 16.730469 30.523437c2.933594 5.359375 11 5.007813 13.464844-.578125l14.050781-31.84375 34.199219-6.476562c5.992187-1.136719 8.167969-8.910156 3.609375-12.988282l-25.941406-23.203124 4.40625-34.523438c.773437-6.050781-5.949219-10.523438-11.234375-7.449219l-30.085938 17.503907-31.472656-14.863282c-5.523437-2.605468-11.84375 2.417969-10.554687 8.386719l7.347656 34.019531-23.859375 25.34375c-4.191407 4.449219-1.351563 12.007813 4.714843 12.625zm32.796876-30.542968c1.695312-1.800782 2.398437-4.320313 1.875-6.738282l-4.96875-22.996094 21.277343 10.042969c2.234375 1.054688 4.851563.941407 6.988281-.296875l20.335938-11.832031-2.980469 23.335937c-.3125 2.457032.601563 4.90625 2.445313 6.554688l17.535156 15.683594-23.117188 4.378906c-2.429687.460938-4.476562 2.089844-5.476562 4.351562l-9.496094 21.527344-11.308594-20.632812c-1.191406-2.167969-3.371093-3.613282-5.832031-3.867188l-23.40625-2.378906zm0 0"/><path d="m506.589844 289.570312-23.933594-25.273437 7.246094-34.039063c1.273437-5.96875-5.0625-10.980468-10.578125-8.351562l-31.429688 14.949219-30.136719-17.414063c-5.292968-3.058594-12.003906 1.433594-11.210937 7.480469l4.507813 34.511719-25.875 23.28125c-4.542969 4.085937-2.347657 11.855468 3.648437 12.976562l34.21875 6.375 14.144531 31.800782c2.480469 5.582031 10.546875 5.90625 13.46875.539062l16.636719-30.570312 34.617187-3.625c6.0625-.632813 8.878907-8.203126 4.675782-12.640626zm-44.789063 1.726563c-2.457031.257813-4.632812 1.710937-5.816406 3.882813l-11.246094 20.667968-9.5625-21.5c-1.007812-2.257812-3.058593-3.878906-5.492187-4.332031l-23.128906-4.3125 17.492187-15.734375c1.835937-1.65625 2.746094-4.109375 2.425781-6.5625l-3.050781-23.328125 20.371094 11.769531c2.140625 1.238282 4.753906 1.34375 6.992187.28125l21.246094-10.109375-4.902344 23.011719c-.511718 2.421875.195313 4.9375 1.894532 6.734375l16.179687 17.082031zm0 0"/><path d="m447.480469 363.621094c-29.933594 14.011718-61.976563 21.113281-95.246094 21.113281-41.261719 0-81.402344-11.199219-116.449219-32.441406l11.414063-38.050781c1.167969-3.890626-.96875-8.003907-4.820313-9.289063l-81.742187-27.246094c-21.839844-35.40625-33.371094-76.125-33.371094-117.941406 0-33.265625 7.105469-65.3125 21.113281-95.242187 1.34375-2.867188.746094-6.265626-1.492187-8.5-2.238281-2.238282-5.632813-2.835938-8.5-1.492188-40.761719 19.074219-75.285157 49.15625-99.84375 86.988281-25.214844 38.847657-38.542969 83.964844-38.542969 130.480469 0 64.105469 24.964844 124.375 70.296875 169.707031 45.328125 45.328125 105.597656 70.292969 169.703125 70.292969 56.328125 0 111.074219-19.910156 154.15625-56.0625 3.179688-2.664062 3.59375-7.40625.925781-10.585938-2.667969-3.179687-7.410156-3.59375-10.585937-.925781-40.382813 33.882813-91.699219 52.542969-144.496094 52.542969-124.046875 0-224.96875-100.917969-224.96875-224.96875 0-80.101562 43.207031-154.3125 111.621094-194.347656-9.578125 26.222656-14.417969 53.753906-14.417969 82.113281 0 45.5625 12.832031 89.902344 37.109375 128.238281.925781 1.460938 2.332031 2.558594 3.972656 3.109375l77.390625 25.792969-10.96875 36.566406c-.964843 3.210938.316407 6.675782 3.140625 8.484375 38.585938 24.734375 83.316406 37.808594 129.355469 37.808594 28.363281 0 55.898437-4.839844 82.121094-14.421875-6.558594 11.226562-14.097657 21.882812-22.523438 31.851562-2.644531 3.125-2.242187 7.945313.886719 10.589844 3.125 2.644532 7.945312 2.242188 10.589844-.882812 13.703125-16.203125 25.195312-34.132813 34.160156-53.285156 2.914062-6.226563-3.765625-12.910157-9.988281-9.996094zm0 0"/><path d="m100.242188 303.253906c-8.398438 3.554688-18.121094-.390625-21.667969-8.789062-1.617188-3.824219-6.023438-5.613282-9.851563-3.996094-3.820312 1.617188-5.613281 6.023438-3.996094 9.847656 3.285157 7.765625 9.394532 13.789063 17.207032 16.960938 7.730468 3.132812 16.476562 3.070312 24.160156-.175782 7.765625-3.285156 13.789062-9.394531 16.957031-17.207031 3.171875-7.8125 3.109375-16.394531-.175781-24.160156-1.613281-3.820313-6.023438-5.613281-9.847656-3.996094-3.824219 1.617188-5.613282 6.027344-3.996094 9.851563 1.71875 4.066406 1.753906 8.558594.09375 12.652344s-4.816406 7.292968-8.882812 9.011718zm0 0"/></svg>