<svg id="Capa_1" enable-background="new 0 0 512 512" height="512" viewBox="0 0 512 512" width="512" xmlns="http://www.w3.org/2000/svg"><g><g><g><g><path d="m130.751 336.278c-2.236-3.482-6.872-4.49-10.353-2.255-3.482 2.237-4.491 6.872-2.255 10.353 30.31 47.186 81.845 75.357 137.857 75.357 90.283 0 163.734-73.451 163.734-163.733s-73.451-163.733-163.734-163.733-163.733 73.45-163.733 163.733c0 19.163 3.282 37.936 9.754 55.795 1.411 3.89 5.706 5.9 9.597 4.491 3.89-1.41 5.901-5.707 4.491-9.597-5.878-16.217-8.858-33.271-8.858-50.689 0-82.02 66.728-148.748 148.748-148.748 82.021 0 148.749 66.728 148.749 148.748s-66.727 148.748-148.748 148.748c-50.887 0-97.709-25.596-125.249-68.47z"/><path d="m508.496 248.151-51.369-46.059 21.485-65.57c.933-2.845.608-5.964-.89-8.556-1.498-2.593-4.039-4.432-6.97-5.045l-67.549-14.124-2.21-10.572c-.848-4.051-4.824-6.646-8.867-5.801-4.051.847-6.648 4.816-5.802 8.867l2.807 13.423c.859 4.098 4.063 7.3 8.16 8.156l65.535 13.702-20.842 63.608c-1.302 3.97-.133 8.339 2.979 11.132l49.839 44.688-49.839 44.687c-3.112 2.791-4.282 7.16-2.98 11.131l20.842 63.609-65.536 13.702c-4.1.857-7.303 4.061-8.16 8.161l-13.703 65.535-63.608-20.842c-3.971-1.302-8.343-.132-11.13 2.98l-44.688 49.84-44.687-49.839c-2.79-3.112-7.161-4.282-11.131-2.98l-63.609 20.842-13.702-65.535c-.857-4.101-4.061-7.305-8.161-8.162l-65.535-13.702 20.842-63.608c1.302-3.972.132-8.342-2.98-11.132l-49.84-44.687 49.839-44.687c3.112-2.79 4.282-7.159 2.98-11.131l-20.842-63.609 65.535-13.702c4.101-.857 7.305-4.061 8.162-8.161l13.702-65.535 63.608 20.842c3.975 1.302 8.342.132 11.132-2.98l44.687-49.84 44.688 49.841c2.791 3.112 7.162 4.282 11.13 2.978l63.61-20.842 3.789 18.134c.848 4.051 4.827 6.65 8.867 5.801 4.051-.847 6.648-4.817 5.802-8.867l-4.806-22.992c-.613-2.932-2.451-5.472-5.044-6.971-2.591-1.498-5.711-1.823-8.557-.89l-65.571 21.485-46.059-51.37c-1.997-2.227-4.858-3.504-7.849-3.504s-5.852 1.277-7.849 3.504l-46.059 51.37-65.57-21.485c-2.844-.932-5.964-.608-8.556.89-2.593 1.498-4.431 4.038-5.045 6.969l-14.123 67.549-67.55 14.123c-2.931.614-5.472 2.452-6.97 5.045-1.498 2.592-1.822 5.711-.89 8.556l21.485 65.57-51.37 46.06c-2.226 1.997-3.503 4.858-3.503 7.849s1.277 5.852 3.504 7.849l51.37 46.059-21.485 65.57c-.933 2.845-.608 5.964.89 8.556 1.498 2.593 4.038 4.431 6.97 5.045l67.549 14.123 14.123 67.55c.614 2.931 2.452 5.472 5.045 6.969 2.593 1.498 5.711 1.822 8.556.89l65.57-21.485 46.06 51.37c1.997 2.226 4.857 3.503 7.848 3.503s5.852-1.277 7.849-3.504l46.06-51.37 65.568 21.485c2.847.932 5.966.608 8.558-.89s4.431-4.039 5.043-6.969l14.125-67.549 67.55-14.124c2.931-.613 5.471-2.452 6.969-5.044 1.498-2.593 1.823-5.711.89-8.556l-21.484-65.57 51.367-46.058c2.228-1.997 3.506-4.858 3.506-7.85s-1.279-5.853-3.505-7.849z"/><path d="m210.436 238.161v-18.886c0-4.138-3.355-7.492-7.492-7.492s-7.493 3.354-7.493 7.492v18.886c0 4.138 3.355 7.492 7.493 7.492s7.492-3.354 7.492-7.492z"/><path d="m316.549 238.161v-18.886c0-4.138-3.354-7.492-7.493-7.492s-7.492 3.354-7.492 7.492v18.886c0 4.138 3.354 7.492 7.492 7.492s7.493-3.354 7.493-7.492z"/><path d="m256 337.991c19.033 0 35.877-12.12 41.913-30.159 1.313-3.924-.804-8.17-4.728-9.483-3.92-1.313-8.17.803-9.483 4.728-3.989 11.92-15.122 19.929-27.703 19.929-12.582 0-23.715-8.01-27.702-19.931-1.313-3.924-5.559-6.041-9.483-4.729-3.924 1.313-6.041 5.558-4.729 9.483 6.037 18.041 22.881 30.162 41.915 30.162z"/></g></g></g></g></svg>